<svg width="203" height="186" viewBox="0 0 203 186" fill="none" xmlns="http://www.w3.org/2000/svg">
<circle cx="5.46741" cy="5.46741" r="5.46741" fill="#F1F1F1"/>
<circle cx="32.8043" cy="5.46741" r="5.46741" fill="#F1F1F1"/>
<circle cx="60.1415" cy="5.46741" r="5.46741" fill="#F1F1F1"/>
<circle cx="142.152" cy="5.46741" r="5.46741" fill="#F1F1F1"/>
<circle cx="87.4786" cy="5.46741" r="5.46741" fill="#F1F1F1"/>
<circle cx="169.49" cy="5.46741" r="5.46741" fill="#F1F1F1"/>
<circle cx="114.816" cy="5.46741" r="5.46741" fill="#F1F1F1"/>
<circle cx="196.827" cy="5.46741" r="5.46741" fill="#F1F1F1"/>
<circle cx="5.46741" cy="27.337" r="5.46741" fill="#F1F1F1"/>
<circle cx="32.8043" cy="27.337" r="5.46741" fill="#F1F1F1"/>
<circle cx="60.1415" cy="27.337" r="5.46741" fill="#F1F1F1"/>
<circle cx="142.152" cy="27.337" r="5.46741" fill="#F1F1F1"/>
<circle cx="87.4786" cy="27.337" r="5.46741" fill="#F1F1F1"/>
<circle cx="169.49" cy="27.337" r="5.46741" fill="#F1F1F1"/>
<circle cx="114.816" cy="27.337" r="5.46741" fill="#F1F1F1"/>
<circle cx="196.827" cy="27.337" r="5.46741" fill="#F1F1F1"/>
<circle cx="5.46741" cy="49.2067" r="5.46741" fill="#F1F1F1"/>
<circle cx="32.8043" cy="49.2067" r="5.46741" fill="#F1F1F1"/>
<circle cx="60.1415" cy="49.2067" r="5.46741" fill="#F1F1F1"/>
<circle cx="142.152" cy="49.2067" r="5.46741" fill="#F1F1F1"/>
<circle cx="87.4786" cy="49.2067" r="5.46741" fill="#F1F1F1"/>
<circle cx="169.49" cy="49.2067" r="5.46741" fill="#F1F1F1"/>
<circle cx="114.816" cy="49.2067" r="5.46741" fill="#F1F1F1"/>
<circle cx="196.827" cy="49.2067" r="5.46741" fill="#F1F1F1"/>
<circle cx="5.46741" cy="71.0763" r="5.46741" fill="#F1F1F1"/>
<circle cx="32.8043" cy="71.0763" r="5.46741" fill="#F1F1F1"/>
<circle cx="60.1415" cy="71.0763" r="5.46741" fill="#F1F1F1"/>
<circle cx="142.152" cy="71.0763" r="5.46741" fill="#F1F1F1"/>
<circle cx="87.4786" cy="71.0763" r="5.46741" fill="#F1F1F1"/>
<circle cx="169.49" cy="71.0763" r="5.46741" fill="#F1F1F1"/>
<circle cx="114.816" cy="71.0763" r="5.46741" fill="#F1F1F1"/>
<circle cx="196.827" cy="71.0763" r="5.46741" fill="#F1F1F1"/>
<circle cx="5.46741" cy="92.9459" r="5.46741" fill="#F1F1F1"/>
<circle cx="32.8043" cy="92.9459" r="5.46741" fill="#F1F1F1"/>
<circle cx="60.1415" cy="92.9459" r="5.46741" fill="#F1F1F1"/>
<circle cx="142.152" cy="92.9459" r="5.46741" fill="#F1F1F1"/>
<circle cx="87.4786" cy="92.9459" r="5.46741" fill="#F1F1F1"/>
<circle cx="169.49" cy="92.9459" r="5.46741" fill="#F1F1F1"/>
<circle cx="114.816" cy="92.9459" r="5.46741" fill="#F1F1F1"/>
<circle cx="196.827" cy="92.9459" r="5.46741" fill="#F1F1F1"/>
<circle cx="5.46741" cy="114.816" r="5.46741" fill="#F1F1F1"/>
<circle cx="32.8043" cy="114.816" r="5.46741" fill="#F1F1F1"/>
<circle cx="60.1415" cy="114.816" r="5.46741" fill="#F1F1F1"/>
<circle cx="142.152" cy="114.816" r="5.46741" fill="#F1F1F1"/>
<circle cx="87.4786" cy="114.816" r="5.46741" fill="#F1F1F1"/>
<circle cx="169.49" cy="114.816" r="5.46741" fill="#F1F1F1"/>
<circle cx="114.816" cy="114.816" r="5.46741" fill="#F1F1F1"/>
<circle cx="196.827" cy="114.816" r="5.46741" fill="#F1F1F1"/>
<circle cx="5.46741" cy="136.685" r="5.46741" fill="#F1F1F1"/>
<circle cx="32.8043" cy="136.685" r="5.46741" fill="#F1F1F1"/>
<circle cx="60.1415" cy="136.685" r="5.46741" fill="#F1F1F1"/>
<circle cx="142.152" cy="136.685" r="5.46741" fill="#F1F1F1"/>
<circle cx="87.4786" cy="136.685" r="5.46741" fill="#F1F1F1"/>
<circle cx="169.49" cy="136.685" r="5.46741" fill="#F1F1F1"/>
<circle cx="114.816" cy="136.685" r="5.46741" fill="#F1F1F1"/>
<circle cx="196.827" cy="136.685" r="5.46741" fill="#F1F1F1"/>
<circle cx="5.46741" cy="158.555" r="5.46741" fill="#F1F1F1"/>
<circle cx="32.8043" cy="158.555" r="5.46741" fill="#F1F1F1"/>
<circle cx="60.1415" cy="158.555" r="5.46741" fill="#F1F1F1"/>
<circle cx="142.152" cy="158.555" r="5.46741" fill="#F1F1F1"/>
<circle cx="87.4786" cy="158.555" r="5.46741" fill="#F1F1F1"/>
<circle cx="169.49" cy="158.555" r="5.46741" fill="#F1F1F1"/>
<circle cx="114.816" cy="158.555" r="5.46741" fill="#F1F1F1"/>
<circle cx="196.827" cy="158.555" r="5.46741" fill="#F1F1F1"/>
<circle cx="5.46741" cy="180.424" r="5.46741" fill="#F1F1F1"/>
<circle cx="32.8043" cy="180.424" r="5.46741" fill="#F1F1F1"/>
<circle cx="60.1415" cy="180.424" r="5.46741" fill="#F1F1F1"/>
<circle cx="142.152" cy="180.424" r="5.46741" fill="#F1F1F1"/>
<circle cx="87.4786" cy="180.424" r="5.46741" fill="#F1F1F1"/>
<circle cx="169.49" cy="180.424" r="5.46741" fill="#F1F1F1"/>
<circle cx="114.816" cy="180.424" r="5.46741" fill="#F1F1F1"/>
<circle cx="196.827" cy="180.424" r="5.46741" fill="#F1F1F1"/>
</svg>
